<svg width="104" height="79" viewBox="0 0 104 79" fill="none" xmlns="http://www.w3.org/2000/svg">
<path d="M32.088 9.608C34.6951 9.608 36.7861 10.5609 38.3609 12.4666C39.949 14.3723 40.7431 17.2043 40.7431 20.9628C40.7431 23.4508 40.3725 25.5484 39.6314 27.2556C38.9035 28.9496 37.8779 30.2333 36.5545 31.1067C35.2443 31.9669 33.7158 32.397 31.9689 32.397C30.8572 32.397 29.8911 32.2514 29.0706 31.9603C28.2501 31.6691 27.5487 31.292 26.9664 30.8288C26.3841 30.3524 25.8945 29.8362 25.4974 29.2804H25.2195C25.2857 29.8098 25.3452 30.3987 25.3982 31.0471C25.4643 31.6824 25.4974 32.2647 25.4974 32.794V41.7469H20.8126V10.0249H24.624L25.2791 13.0621H25.4974C25.9077 12.4401 26.404 11.8644 26.9863 11.335C27.5818 10.8057 28.2964 10.3888 29.1302 10.0844C29.9772 9.76681 30.9631 9.608 32.088 9.608ZM30.8374 13.4194C29.5537 13.4194 28.5214 13.6775 27.7406 14.1936C26.973 14.6965 26.4106 15.4574 26.0533 16.4765C25.7092 17.4955 25.5239 18.7726 25.4974 20.3077V20.9628C25.4974 22.5906 25.6629 23.9736 25.9937 25.1117C26.3378 26.2366 26.9002 27.0968 27.6811 27.6923C28.4751 28.2746 29.5471 28.5658 30.8969 28.5658C32.0351 28.5658 32.9747 28.2548 33.7158 27.6328C34.4701 27.0108 35.0326 26.1241 35.4031 24.9727C35.7737 23.8214 35.9589 22.4649 35.9589 20.9033C35.9589 18.5344 35.5355 16.6948 34.6885 15.3847C33.8547 14.0745 32.571 13.4194 30.8374 13.4194ZM54.7579 9.608C57.5371 9.608 59.6346 10.2234 61.0507 11.4541C62.48 12.6849 63.1946 14.6039 63.1946 17.211V32H59.8795L58.9862 28.8834H58.8274C58.2054 29.6774 57.5635 30.3325 56.9018 30.8486C56.2401 31.3648 55.4725 31.7486 54.5991 32C53.7389 32.2647 52.6868 32.397 51.4428 32.397C50.1326 32.397 48.9614 32.1588 47.9291 31.6824C46.8969 31.1927 46.083 30.4516 45.4875 29.4591C44.8919 28.4665 44.5942 27.2093 44.5942 25.6874C44.5942 23.4243 45.4345 21.7238 47.1152 20.5856C48.8092 19.4475 51.3634 18.8189 54.7778 18.6998L58.5892 18.5608V17.4095C58.5892 15.8876 58.2318 14.8024 57.5172 14.1539C56.8158 13.5054 55.8232 13.1812 54.5395 13.1812C53.4411 13.1812 52.3758 13.34 51.3435 13.6576C50.3113 13.9752 49.3055 14.3656 48.3262 14.8288L46.8175 11.5336C47.8894 10.9645 49.107 10.5013 50.4701 10.144C51.8464 9.78666 53.2757 9.608 54.7579 9.608ZM58.5693 21.4988L55.7306 21.598C53.4014 21.6774 51.767 22.0745 50.8274 22.7891C49.8878 23.5037 49.418 24.4831 49.418 25.7271C49.418 26.8123 49.7422 27.6063 50.3907 28.1092C51.0391 28.5989 51.8927 28.8437 52.9515 28.8437C54.566 28.8437 55.9026 28.3871 56.9614 27.474C58.0333 26.5476 58.5693 25.1911 58.5693 23.4045V21.4988ZM66.4105 10.0249H71.4924L75.9985 22.5707C76.1971 23.1398 76.3757 23.7023 76.5345 24.2581C76.7066 24.8007 76.8521 25.3367 76.9712 25.866C77.1036 26.3954 77.2095 26.9247 77.2889 27.4541H77.408C77.5403 26.7659 77.7256 25.9984 77.9638 25.1514C78.2152 24.2912 78.4932 23.431 78.7975 22.5707L83.1251 10.0249H88.1474L78.7181 35.0174C78.1755 36.4466 77.5072 37.6642 76.7132 38.67C75.9324 39.689 75.006 40.4566 73.934 40.9727C72.8621 41.502 71.6379 41.7667 70.2616 41.7667C69.5999 41.7667 69.0242 41.727 68.5345 41.6476C68.0449 41.5814 67.628 41.5087 67.2839 41.4293V37.6973C67.5618 37.7634 67.9125 37.823 68.336 37.8759C68.7595 37.9289 69.1962 37.9553 69.6462 37.9553C70.4799 37.9553 71.2012 37.7899 71.81 37.459C72.4187 37.1282 72.9349 36.6584 73.3584 36.0496C73.7818 35.4541 74.1325 34.7725 74.4105 34.005L75.1847 31.9404L66.4105 10.0249Z" fill="#232F3E"/>
<path d="M91.2226 58.4602C46.9867 81.28 19.5335 62.1873 1.95975 50.5909C0.872292 49.86 -0.976001 50.7618 0.627647 52.7584C6.48233 60.4532 25.6693 79 50.714 79C75.7759 79 90.6854 64.1771 92.5505 61.5914C94.403 59.0275 93.0944 57.6132 91.2222 58.4602H91.2226ZM103.646 51.0233C102.458 49.3465 96.4228 49.034 92.6245 49.5397C88.8203 50.0309 83.1102 52.551 83.6066 54.0642C83.8614 54.631 84.3813 54.3768 86.9947 54.1221C89.6152 53.8387 96.9562 52.8345 98.4859 55.0019C100.023 57.1844 96.1445 67.5812 95.4362 69.258C94.7519 70.9347 95.6977 71.3671 96.9831 70.2503C98.2509 69.134 100.546 66.243 102.086 62.1518C103.616 58.0383 104.549 52.3 103.646 51.0233H103.646Z" fill="#FF9900"/>
<path d="M91.2226 58.4602C46.9867 81.28 19.5335 62.1873 1.95975 50.5909C0.872292 49.86 -0.976001 50.7618 0.627647 52.7584C6.48233 60.4532 25.6693 79 50.714 79C75.7759 79 90.6854 64.1771 92.5505 61.5914C94.403 59.0275 93.0944 57.6132 91.2222 58.4602H91.2226ZM103.646 51.0233C102.458 49.3465 96.4228 49.034 92.6245 49.5397C88.8203 50.0309 83.1102 52.551 83.6066 54.0642C83.8614 54.631 84.3813 54.3768 86.9947 54.1221C89.6152 53.8387 96.9562 52.8345 98.4859 55.0019C100.023 57.1844 96.1445 67.5812 95.4362 69.258C94.7519 70.9347 95.6977 71.3671 96.9831 70.2503C98.2509 69.134 100.546 66.243 102.086 62.1518C103.616 58.0383 104.549 52.3 103.646 51.0233H103.646Z" fill="#FF9900"/>
</svg>
