<svg width="97" height="79" viewBox="0 0 97 79" fill="none" xmlns="http://www.w3.org/2000/svg">
<g clip-path="url(#clip0_1370_327)">
<path d="M0 9.875C0 4.42119 3.61903 0 8.08333 0H88.9167C93.381 0 97 4.42119 97 9.875V69.125C97 74.5788 93.381 79 88.9167 79H8.08333C3.61903 79 0 74.5788 0 69.125V9.875Z" fill="white"/>
<path d="M46.3121 42.154V53.5689H43.3271V25.3791H51.2437C52.1886 25.3551 53.1281 25.5585 54.008 25.9773C54.8878 26.3962 55.6906 27.0223 56.37 27.8195C57.0562 28.5683 57.6023 29.4867 57.9716 30.5129C58.341 31.539 58.525 32.6492 58.5113 33.7688C58.531 34.8944 58.3498 36.0118 57.9802 37.0445C57.6106 38.0772 57.0613 39.0007 56.37 39.7518C54.9857 41.3533 53.2769 42.1532 51.2437 42.1517H46.3121V42.154ZM46.3121 28.8497V38.6902H51.3178C51.8666 38.7099 52.4128 38.5904 52.9213 38.3395C53.4299 38.0885 53.8896 37.7115 54.2712 37.2326C54.6508 36.7849 54.9526 36.2494 55.1586 35.6577C55.3647 35.066 55.4708 34.4302 55.4708 33.7879C55.4708 33.1456 55.3647 32.5098 55.1586 31.9181C54.9526 31.3265 54.6508 30.7909 54.2712 30.3432C53.8944 29.8542 53.4363 29.468 52.9271 29.2101C52.4179 28.9523 51.8694 28.8286 51.3178 28.8474H46.3121V28.8497Z" fill="#5F6368"/>
<path d="M65.3896 33.6519C67.5958 33.6519 69.3373 34.3671 70.6141 35.7976C71.8909 37.2282 72.5286 39.1895 72.5274 41.6817V53.569H69.6723V50.8924H69.5425C68.3065 53.0966 66.6626 54.1988 64.6109 54.1988C62.8595 54.1988 61.3942 53.569 60.2151 52.3094C59.6492 51.7313 59.1968 51.0073 58.8908 50.1901C58.5848 49.373 58.433 48.4833 58.4464 47.586C58.4464 45.5901 59.0681 44.0029 60.3115 42.8243C61.5549 41.6457 63.2148 41.0549 65.2913 41.0519C67.0637 41.0519 68.5234 41.4455 69.6704 42.2327V41.405C69.6738 40.7933 69.5649 40.1883 69.3517 39.6339C69.1384 39.0795 68.8262 38.5897 68.4375 38.1998C67.6482 37.3359 66.6195 36.8644 65.5564 36.8795C63.8891 36.8795 62.5696 37.7327 61.5981 39.4392L58.9692 37.4306C60.4153 34.9114 62.5554 33.6519 65.3896 33.6519ZM61.5277 47.6647C61.5257 48.1256 61.6145 48.5803 61.7867 48.9911C61.9589 49.402 62.2096 49.7569 62.5177 50.0264C63.1779 50.6564 63.9973 50.9901 64.8371 50.9711C66.0967 50.9685 67.304 50.3603 68.1946 49.2796C69.1834 48.1505 69.6778 46.8257 69.6778 45.3052C68.7471 44.4055 67.4493 43.9557 65.7845 43.9557C64.572 43.9557 63.5609 44.3103 62.7513 45.0196C61.9337 45.7393 61.5277 46.6143 61.5277 47.6647V47.6647Z" fill="#5F6368"/>
<path d="M88.9165 34.2817L78.9494 62.0712H75.8681L79.5668 52.3477L73.0129 34.2817H76.2574L80.9944 48.1371H81.0593L85.6664 34.2817H88.9165Z" fill="#5F6368"/>
<path d="M34.2499 39.6935C34.251 38.5899 34.1741 37.4883 34.02 36.4006H21.4314V42.6378H28.6416C28.494 43.634 28.1817 44.5836 27.7235 45.4294C27.2653 46.2752 26.6707 46.9997 25.9755 47.5592V51.6078H30.2786C32.7982 48.7895 34.2499 44.6216 34.2499 39.6935Z" fill="#4285F4"/>
<path d="M21.4316 55.5192C25.0339 55.5192 28.067 54.0842 30.2788 51.61L25.9757 47.5614C24.778 48.5465 23.2355 49.1088 21.4316 49.1088C17.9498 49.1088 14.9945 46.2613 13.9378 42.4241H9.50488V46.5964C10.6159 49.2786 12.3196 51.5334 14.4256 53.109C16.5317 54.6846 18.9573 55.5191 21.4316 55.5192V55.5192Z" fill="#34A853"/>
<path d="M13.9375 42.424C13.3789 40.4133 13.3789 38.2358 13.9375 36.2251V32.0527H9.50465C8.57001 34.3091 8.08325 36.7993 8.08325 39.3246C8.08325 41.8498 8.57001 44.34 9.50465 46.5964L13.9375 42.424Z" fill="#FBBC04"/>
<path d="M21.4316 29.5403C23.3352 29.5026 25.1747 30.3752 26.5523 31.9695L30.3623 27.3473C27.9464 24.5944 24.7458 23.083 21.4316 23.13C18.9573 23.1301 16.5317 23.9646 14.4256 25.5402C12.3196 27.1158 10.6159 29.3706 9.50488 32.0527L13.9378 36.2251C14.9945 32.3879 17.9498 29.5403 21.4316 29.5403Z" fill="#EA4335"/>
</g>
<defs>
<clipPath id="clip0_1370_327">
<rect width="97" height="79" fill="white"/>
</clipPath>
</defs>
</svg>
