<svg width="64" height="50" viewBox="0 0 64 50" fill="none" xmlns="http://www.w3.org/2000/svg">
<path d="M35.6288 17.1473H28.3715V32.9393H35.6288V17.1473Z" fill="#FF5F00"/>
<path d="M28.8323 25.0433C28.8311 23.5224 29.1158 22.0211 29.6646 20.6531C30.2134 19.2851 31.0121 18.0863 32.0001 17.1473C30.7766 15.9827 29.3071 15.2585 27.7598 15.0574C26.2124 14.8563 24.6495 15.1864 23.2497 16.01C21.8499 16.8336 20.6698 18.1175 19.8441 19.7149C19.0184 21.3123 18.5806 23.1588 18.5806 25.0433C18.5806 26.9278 19.0184 28.7743 19.8441 30.3717C20.6698 31.9691 21.8499 33.253 23.2497 34.0766C24.6495 34.9002 26.2124 35.2304 27.7598 35.0292C29.3071 34.8281 30.7766 34.1039 32.0001 32.9393C31.0121 32.0003 30.2134 30.8015 29.6646 29.4335C29.1158 28.0655 28.8311 26.5642 28.8323 25.0433Z" fill="#EB001B"/>
<path d="M45.4193 25.0433C45.4193 26.9278 44.9815 28.7742 44.1559 30.3716C43.3303 31.9691 42.1501 33.253 40.7504 34.0766C39.3507 34.9002 37.7878 35.2303 36.2404 35.0292C34.6931 34.8281 33.2236 34.1039 32.0001 32.9393C32.9873 31.9994 33.7853 30.8003 34.3341 29.4325C34.8828 28.0648 35.168 26.5639 35.168 25.0433C35.168 23.5226 34.8828 22.0218 34.3341 20.6541C33.7853 19.2863 32.9873 18.0872 32.0001 17.1473C33.2236 15.9827 34.6931 15.2585 36.2404 15.0574C37.7878 14.8563 39.3507 15.1864 40.7504 16.01C42.1501 16.8336 43.3303 18.1175 44.1559 19.7149C44.9815 21.3124 45.4193 23.1588 45.4193 25.0433Z" fill="#F79E1B"/>
<path d="M44.628 31.2667V30.9434H44.7356V30.8775H44.4614V30.9434H44.5692V31.2667H44.628ZM45.1603 31.2667V30.8769H45.0763L44.9796 31.145L44.8829 30.8769H44.7988V31.2667H44.8581V30.9727L44.9488 31.2262H45.0103L45.101 30.972V31.2667H45.1603Z" fill="#F79E1B"/>
</svg>
