<svg width="75" height="59" viewBox="0 0 75 59" fill="none" xmlns="http://www.w3.org/2000/svg">
<path d="M0 7.375C0 3.3019 2.79822 0 6.25 0H68.75C72.2018 0 75 3.3019 75 7.375V51.625C75 55.6981 72.2018 59 68.75 59H6.25C2.79822 59 0 55.6981 0 51.625V7.375Z" fill="#1434CB"/>
<path d="M13.6435 52.2015V49.163C13.6661 48.9075 13.6193 48.6511 13.506 48.4109C13.3927 48.1707 13.2157 47.9523 12.9866 47.7702C12.7576 47.5881 12.4818 47.4465 12.1777 47.3548C11.8736 47.2632 11.5482 47.2236 11.2231 47.2388C10.7977 47.2169 10.3726 47.2853 9.99213 47.4367C9.6117 47.5881 9.28987 47.8171 9.06018 48.0996C8.85083 47.8255 8.55141 47.6008 8.19341 47.4493C7.83542 47.2979 7.43212 47.2251 7.02598 47.2388C6.67196 47.2248 6.31942 47.2837 6.00328 47.4099C5.68714 47.536 5.41835 47.7249 5.22354 47.9578V47.3603H3.88452V52.2015H5.23635V49.5175C5.20712 49.3519 5.22488 49.1832 5.28835 49.0237C5.35183 48.8641 5.45943 48.7176 5.60345 48.5946C5.74746 48.4716 5.9243 48.3753 6.12128 48.3125C6.31826 48.2496 6.53049 48.2219 6.7427 48.2313C7.63104 48.2313 8.08172 48.6871 8.08172 49.5074V52.2015H9.43354V49.5175C9.40651 49.3522 9.42581 49.1843 9.49009 49.0254C9.55437 48.8666 9.66207 48.7208 9.80563 48.5982C9.94919 48.4756 10.1251 48.3793 10.3211 48.3159C10.517 48.2525 10.7282 48.2236 10.9399 48.2313C11.8539 48.2313 12.2916 48.6871 12.2916 49.5074V52.2015H13.6435ZM33.6506 47.3603H31.462V45.8917H30.1101V47.3603H28.8613V48.3225H30.1101V50.5304C30.1101 51.6545 30.6638 52.3231 32.2473 52.3231C32.8389 52.3245 33.419 52.1946 33.921 51.9483L33.5348 51.0469C33.1757 51.2154 32.7682 51.3095 32.3503 51.3203C31.6808 51.3203 31.462 50.9962 31.462 50.5101V48.3225H33.6506V47.3603ZM45.0704 47.2388C44.7439 47.2312 44.4209 47.293 44.1354 47.4178C43.8499 47.5426 43.6125 47.7257 43.4482 47.9477V47.3603H42.1221V52.2015H43.4611V49.4871C43.4611 48.6871 43.8988 48.2414 44.7744 48.2414C45.0607 48.2383 45.3451 48.2796 45.6112 48.363L46.0231 47.3704C45.7173 47.2843 45.3952 47.2398 45.0704 47.2388ZM27.8056 47.7451C27.0477 47.3906 26.1763 47.2149 25.295 47.2388C23.7372 47.2388 22.733 47.8262 22.733 48.7883C22.733 49.5783 23.4797 50.0645 24.8572 50.2164L25.4881 50.2873C26.2219 50.3682 26.5696 50.5202 26.5696 50.7936C26.5696 51.1684 26.0803 51.3811 25.1663 51.3811C24.431 51.3978 23.71 51.2194 23.1192 50.8747L22.4884 51.695C23.2683 52.1235 24.2025 52.3437 25.1534 52.3231C26.9301 52.3231 27.96 51.6646 27.96 50.743C27.96 49.8923 27.149 49.4466 25.81 49.2947L25.1792 49.2238C24.5998 49.163 24.1363 49.072 24.1363 48.7479C24.1363 48.3934 24.5739 48.1806 25.3079 48.1806C25.9818 48.1887 26.642 48.3316 27.2262 48.5959L27.8056 47.7451ZM63.6742 47.2388C63.3477 47.2312 63.0247 47.293 62.7392 47.4178C62.4537 47.5426 62.2163 47.7257 62.052 47.9477V47.3603H60.7259V52.2015H62.0648V49.4871C62.0648 48.6871 62.5026 48.2414 63.378 48.2414C63.6644 48.2383 63.9489 48.2796 64.215 48.363L64.627 47.3704C64.3212 47.2843 63.999 47.2398 63.6742 47.2388ZM46.4222 49.7808C46.4044 50.1218 46.4775 50.4621 46.6369 50.7795C46.7963 51.097 47.0384 51.3847 47.3477 51.6242C47.6569 51.8637 48.0264 52.0495 48.4325 52.1699C48.8385 52.2903 49.2721 52.3424 49.7053 52.3231C50.5092 52.3548 51.2991 52.1489 51.9197 51.7457L51.276 50.8949C50.8131 51.1725 50.2487 51.3252 49.6666 51.3304C49.1649 51.3065 48.6936 51.1328 48.3491 50.8448C48.0046 50.5569 47.8128 50.1763 47.8128 49.7809C47.8128 49.3854 48.0046 49.0049 48.3491 48.7169C48.6936 48.4289 49.1649 48.2553 49.6666 48.2313C50.2487 48.2365 50.8131 48.3892 51.276 48.6669L51.9197 47.816C51.299 47.4129 50.5092 47.207 49.7053 47.2388C49.2721 47.2194 48.8386 47.2715 48.4326 47.3919C48.0265 47.5122 47.657 47.6981 47.3478 47.9375C47.0385 48.1769 46.7964 48.4646 46.637 48.7821C46.4776 49.0996 46.4044 49.4397 46.4222 49.7808ZM58.9621 49.7808V47.3603H57.6231V47.9477C57.3946 47.716 57.0988 47.5308 56.7606 47.4074C56.4224 47.2841 56.0515 47.2262 55.679 47.2388C54.8494 47.2708 54.0671 47.5526 53.4943 48.0258C52.9215 48.499 52.6021 49.1275 52.6021 49.7809C52.6021 50.4344 52.9215 51.0628 53.4943 51.536C54.0671 52.0093 54.8494 52.2911 55.679 52.3231C56.0515 52.3356 56.4224 52.2777 56.7606 52.1544C57.0988 52.031 57.3946 51.8457 57.6231 51.614V52.2015H58.9621V49.7808ZM53.9796 49.7808C54.0003 49.4951 54.127 49.2205 54.3438 48.9907C54.5606 48.761 54.8582 48.5862 55.1998 48.4879C55.5414 48.3895 55.9121 48.372 56.2662 48.4375C56.6203 48.5029 56.9423 48.6485 57.1925 48.8561C57.4427 49.0638 57.6102 49.3246 57.6743 49.6063C57.7384 49.8879 57.6963 50.1782 57.5531 50.4413C57.41 50.7043 57.1722 50.9287 56.8689 51.0867C56.5657 51.2447 56.2102 51.3294 55.8465 51.3304C55.5915 51.3331 55.3386 51.2943 55.1037 51.2163C54.8688 51.1383 54.657 51.0229 54.4816 50.8773C54.3062 50.7317 54.171 50.5591 54.0846 50.3704C53.9982 50.1817 53.9625 49.9809 53.9796 49.7808ZM37.822 47.2388C36.9871 47.2733 36.2015 47.561 35.6303 48.0413C35.059 48.5216 34.7465 49.1573 34.7581 49.815C34.7698 50.4727 35.1048 51.1013 35.6928 51.5689C36.2809 52.0365 37.0763 52.3068 37.9122 52.3231C38.8307 52.3484 39.729 52.1068 40.4356 51.6444L39.7789 50.8646C39.2705 51.1851 38.6408 51.3633 37.9894 51.371C37.5469 51.4002 37.1074 51.2929 36.7638 51.0717C36.4201 50.8506 36.1994 50.5329 36.1483 50.1859H40.7188C40.7317 50.0543 40.7445 49.9226 40.7445 49.7808C40.7317 48.2718 39.5472 47.2388 37.822 47.2388ZM37.7962 48.1806C38.2007 48.1745 38.5917 48.2946 38.8837 48.5149C39.1757 48.7351 39.3449 49.0374 39.3541 49.3555H36.1612C36.1847 49.0305 36.3689 48.7256 36.6745 48.506C36.98 48.2865 37.3826 48.1697 37.7962 48.1806ZM71.3861 49.7808V45.4158H70.0471V47.9477C69.8185 47.716 69.5228 47.5308 69.1846 47.4074C68.8464 47.2841 68.4755 47.2262 68.1031 47.2388C67.2734 47.2707 66.4911 47.5525 65.9183 48.0258C65.3455 48.499 65.026 49.1274 65.026 49.7809C65.026 50.4344 65.3455 51.0628 65.9183 51.5361C66.4911 52.0093 67.2734 52.2911 68.1031 52.3231C68.4755 52.3356 68.8464 52.2777 69.1846 52.1544C69.5228 52.031 69.8186 51.8457 70.0471 51.614V52.2015H71.3861V49.7808ZM73.6181 51.4999C73.7012 51.4995 73.7836 51.5123 73.8603 51.5377C73.934 51.5619 74.0012 51.5969 74.0582 51.6408C74.1148 51.6847 74.16 51.7368 74.1915 51.7942C74.2237 51.8531 74.2403 51.9166 74.2403 51.9808C74.2403 52.045 74.2237 52.1085 74.1915 52.1675C74.1599 52.2246 74.1146 52.2764 74.0582 52.3202C74.001 52.3641 73.9339 52.3993 73.8603 52.4239C73.7838 52.4497 73.7013 52.4627 73.6181 52.4623C73.4956 52.4633 73.3754 52.4358 73.2727 52.3834C73.1699 52.3309 73.089 52.2559 73.0402 52.1675C73.0081 52.1085 72.9915 52.045 72.9915 51.9808C72.9915 51.9166 73.0081 51.8531 73.0402 51.7942C73.0716 51.7368 73.1166 51.6848 73.1729 51.6408C73.2299 51.5966 73.2974 51.5615 73.3716 51.5377C73.4497 51.5122 73.5335 51.4994 73.6181 51.4999ZM73.6181 52.3561C73.6815 52.3565 73.7444 52.3465 73.8026 52.3267C73.8585 52.3075 73.9093 52.2803 73.9524 52.2464C74.0413 52.1758 74.0912 52.0804 74.0912 51.981C74.0912 51.8816 74.0413 51.7863 73.9524 51.7157C73.9094 51.6819 73.8585 51.6549 73.8026 51.6361C73.7443 51.6166 73.6814 51.6068 73.6181 51.6072C73.5535 51.6068 73.4896 51.6167 73.43 51.6361C73.3731 51.6546 73.3214 51.6816 73.2778 51.7157C73.1889 51.7863 73.139 51.8816 73.139 51.981C73.139 52.0804 73.1889 52.1758 73.2778 52.2464C73.3215 52.2806 73.3732 52.3079 73.43 52.3267C73.4895 52.3464 73.5535 52.3565 73.6181 52.3561ZM73.6541 51.7558C73.7143 51.7527 73.774 51.7663 73.8228 51.7942C73.8423 51.8068 73.8577 51.8228 73.868 51.8409C73.8783 51.859 73.883 51.8787 73.882 51.8985C73.8827 51.9155 73.8788 51.9324 73.8707 51.9481C73.8625 51.9639 73.8503 51.9781 73.8348 51.9899C73.7975 52.0159 73.7503 52.0315 73.7005 52.0341L73.8865 52.2028H73.7411L73.5687 52.0353H73.5132V52.2028H73.3918V51.7558H73.6541ZM73.5132 51.8396V51.9587H73.6526C73.6794 51.9597 73.706 51.9546 73.7291 51.9439C73.7385 51.9389 73.7461 51.9322 73.7511 51.9242C73.756 51.9162 73.7583 51.9074 73.7575 51.8985C73.7581 51.8898 73.7558 51.8812 73.7509 51.8734C73.7459 51.8656 73.7384 51.859 73.7291 51.8542C73.706 51.8436 73.6794 51.8385 73.6526 51.8396H73.5132ZM66.4036 49.7808C66.4244 49.4951 66.5511 49.2205 66.7679 48.9908C66.9847 48.761 67.2823 48.5863 67.6239 48.488C67.9655 48.3897 68.3361 48.3722 68.6902 48.4376C69.0443 48.5031 69.3663 48.6486 69.6165 48.8563C69.8667 49.064 70.0341 49.3247 70.0982 49.6064C70.1622 49.8881 70.1201 50.1783 69.977 50.4414C69.8339 50.7044 69.596 50.9288 69.2928 51.0867C68.9895 51.2447 68.6341 51.3294 68.2704 51.3304C68.0154 51.3331 67.7626 51.2943 67.5277 51.2163C67.2928 51.1383 67.0809 51.0228 66.9056 50.8772C66.7302 50.7317 66.595 50.5591 66.5087 50.3704C66.4223 50.1816 66.3865 49.9809 66.4036 49.7808ZM21.188 49.7808V47.3603H19.849V47.9477C19.6205 47.716 19.3247 47.5308 18.9865 47.4074C18.6483 47.2841 18.2774 47.2262 17.905 47.2388C17.0753 47.2708 16.2931 47.5526 15.7203 48.0258C15.1475 48.499 14.828 49.1275 14.828 49.7809C14.828 50.4344 15.1475 51.0628 15.7203 51.536C16.2931 52.0093 17.0753 52.2911 17.905 52.3231C18.2774 52.3356 18.6483 52.2777 18.9865 52.1544C19.3247 52.031 19.6205 51.8457 19.849 51.614V52.2015H21.188V49.7808ZM16.2056 49.7808C16.2264 49.4951 16.353 49.2205 16.5698 48.9908C16.7867 48.761 17.0842 48.5863 17.4258 48.488C17.7674 48.3897 18.1381 48.3722 18.4922 48.4376C18.8463 48.5031 19.1683 48.6486 19.4184 48.8563C19.6686 49.064 19.8361 49.3248 19.9001 49.6064C19.9642 49.8881 19.9221 50.1783 19.779 50.4414C19.6358 50.7044 19.398 50.9288 19.0947 51.0868C18.7915 51.2447 18.4361 51.3294 18.0724 51.3304C17.8174 51.3331 17.5645 51.2943 17.3296 51.2163C17.0947 51.1383 16.8829 51.0228 16.7075 50.8772C16.5321 50.7317 16.397 50.5591 16.3106 50.3704C16.2242 50.1816 16.1885 49.9809 16.2056 49.7808Z" fill="white"/>
<path d="M47.6409 10.4656H27.3606V39.135H47.6409V10.4656Z" fill="#FF5F00"/>
<path d="M28.648 24.8013C28.6448 22.0402 29.4402 19.3148 30.9739 16.8312C32.5076 14.3477 34.7394 12.1712 37.5005 10.4666C34.0813 8.35237 29.975 7.03759 25.6509 6.67249C21.3268 6.30739 16.9593 6.90671 13.0477 8.40194C9.13612 9.89717 5.83818 12.228 3.53088 15.128C1.22358 18.028 0 21.3801 0 24.8013C0 28.2225 1.22358 31.5746 3.53088 34.4746C5.83818 37.3746 9.13612 39.7054 13.0477 41.2007C16.9593 42.6959 21.3268 43.2952 25.6509 42.9301C29.975 42.565 34.0813 41.2502 37.5005 39.136C34.7395 37.4313 32.5076 35.2549 30.9739 32.7713C29.4402 30.2878 28.6449 27.5624 28.648 24.8013Z" fill="#EB001B"/>
<path d="M75 24.8013C75.0002 28.2224 73.7768 31.5746 71.4696 34.4746C69.1624 37.3746 65.8646 39.7054 61.9531 41.2006C58.0415 42.6959 53.6741 43.2952 49.3501 42.9301C45.026 42.565 40.9198 41.2502 37.5007 39.136C40.2593 37.4296 42.4894 35.2528 44.0229 32.7697C45.5563 30.2865 46.3531 27.5619 46.3531 24.8013C46.3531 22.0406 45.5563 19.3161 44.0229 16.8329C42.4894 14.3498 40.2593 12.173 37.5007 10.4666C40.9198 8.35237 45.026 7.03758 49.3501 6.67249C53.6741 6.30739 58.0415 6.90672 61.9531 8.40196C65.8646 9.89721 69.1624 12.228 71.4696 15.128C73.7768 18.028 75.0002 21.3802 75 24.8013Z" fill="#F79E1B"/>
</svg>
