<svg width="131" height="61" viewBox="0 0 131 61" fill="none" xmlns="http://www.w3.org/2000/svg">
<path d="M0 7.625C0 3.41383 4.88756 0 10.9167 0H120.083C126.112 0 131 3.41383 131 7.625V53.375C131 57.5862 126.112 61 120.083 61H10.9167C4.88756 61 0 57.5862 0 53.375V7.625Z" fill="#1434CB"/>
<path d="M62.9555 20.321C61.9907 24.977 59.3303 24.4278 59.3303 24.4278L55.6987 24.4315L57.133 15.2077C57.133 15.2077 59.4312 15.2279 60.9495 15.2279C62.8078 15.2279 63.4824 17.779 62.9555 20.321ZM70.583 16.0121C71.1727 7.9399 67.6144 4.56958 63.1711 4.56958C61.0855 4.56958 51.4976 4.56958 51.4976 4.56958L44.6074 47.9852H52.0246L54.1103 34.5994L60.0209 34.6618C60.0209 34.6618 69.1731 35.3322 70.583 16.0121Z" fill="white"/>
<path d="M28.2078 16.4419H34.9737L32.1879 34.9741C32.1879 34.9741 31.493 39.1066 33.7296 39.4262C35.4954 39.6778 36.8097 36.0338 37.2411 33.5653C37.8063 30.3236 40.0056 16.4419 40.0056 16.4419H46.9755L41.6716 47.9851H35.5857L36.3337 43.4779C36.3337 43.4779 33.2291 50.022 28.6158 49.2378C24.5157 48.5417 24.1619 43.4008 24.8727 36.9871C25.2212 33.8371 28.2078 16.4419 28.2078 16.4419Z" fill="white"/>
<path d="M76.8198 41.5586C75.6606 42.0674 74.255 42.3429 73.9766 40.5227C73.2106 35.5343 79.9669 34.0741 79.9669 34.0741C80.0126 38.6199 77.7091 41.1674 76.8198 41.5586ZM87.0388 32.4284C87.9302 27.1829 89.0575 22.2128 88.1501 19.4596C86.7615 15.2444 84.2508 14.8752 80.5789 14.8752C76.5223 14.8752 71.5127 16.2068 69.8807 25.5335C72.419 25.5335 76.6349 25.5335 76.6349 25.5335C76.6349 25.5335 77.2501 22.02 79.7863 22.2422C82.0302 22.4369 81.907 25.1074 81.0804 26.5823C79.6301 29.1683 75.6245 27.7339 71.1887 30.3952C67.3127 32.7186 65.9559 41.5292 66.7985 45.0465C67.6145 48.4554 69.1338 48.8888 71.1844 49.2378C74.477 49.7961 77.0015 46.6242 78.1766 44.7618C78.1766 46.8299 78.2074 47.9852 78.2074 47.9852H85.3154L85.2984 46.8281C85.2984 46.8281 84.6652 46.5379 84.7353 45.0006C84.7874 43.8728 86.0146 38.4546 87.0388 32.4284Z" fill="white"/>
<path d="M18.6562 20.2218C17.6967 24.0642 14.7228 23.627 14.7228 23.627L11.2613 23.5995L12.5256 15.4648C12.5256 15.4648 15.6228 15.485 17.1411 15.485C18.7677 15.485 19.2756 17.7423 18.6562 20.2218ZM26.5249 14.6787C27.1146 6.6083 23.006 4.56958 18.5637 4.56958C16.4781 4.56958 6.89021 4.56958 6.89021 4.56958L0 47.9852H7.4172L9.73341 33.2439L13.8941 33.3027C13.8941 33.3027 15.6111 33.13 15.6451 35.9181C15.6823 38.8917 14.3701 44.3522 14.4551 47.9852C15.4411 47.9852 22.0752 47.9852 22.0752 47.9852L22.0582 46.828C22.0582 46.828 21.425 46.5378 21.4962 45.0005C21.5259 44.3595 21.9339 42.3355 22.4694 39.6044C22.7913 38.3995 23.278 35.5434 23.2333 33.2182C23.177 30.3144 22.123 28.9663 20.6037 28.0241C25.3413 26.1029 26.5249 14.6787 26.5249 14.6787Z" fill="white"/>
<path d="M90.2579 16.4419H97.1481V35.3671L103.11 16.4419H109.434L96.6838 54.7037C96.6838 54.7037 95.5002 57.9143 94.0318 59.6114C92.8248 61.0072 91.3427 60.9448 90.889 60.9999C88.3709 60.9632 85.3333 60.9521 85.3333 60.9521L86.7984 51.8312L89.1699 51.8238C89.1699 51.8238 90.2547 51.6328 90.6744 50.7071C91.0738 49.8255 91.2778 48.9439 91.2778 47.6509C91.2778 45.7132 90.2579 16.4419 90.2579 16.4419Z" fill="white"/>
<path d="M118.274 9.15405L110.318 56.996L125.209 33.075L118.274 9.15405Z" fill="#108147"/>
<path d="M113.174 9.15405L105.218 56.996L120.11 33.075L113.174 9.15405Z" fill="#F07322"/>
</svg>
