<svg width="64" height="50" viewBox="0 0 64 50" fill="none" xmlns="http://www.w3.org/2000/svg">
<path fill-rule="evenodd" clip-rule="evenodd" d="M22.7101 31.0781H19.8513L17.7076 20.8834C17.6059 20.4144 17.3898 19.9998 17.072 19.8044C16.279 19.3134 15.405 18.9226 14.4517 18.7255V18.333H19.0568C19.6924 18.333 20.1691 18.9226 20.2486 19.6073L21.3608 26.9611L24.2182 18.333H26.9974L22.7101 31.0781ZM28.5859 31.0781H25.8861L28.1092 18.333H30.8091L28.5859 31.0781ZM34.3032 21.8618C34.3826 21.1754 34.8593 20.7829 35.4154 20.7829C36.2894 20.6843 37.2414 20.8814 38.0358 21.3708L38.5125 18.6267C37.718 18.2342 36.8441 18.0371 36.051 18.0371C33.4306 18.0371 31.5239 19.8025 31.5239 22.2526C31.5239 24.1166 32.8745 25.0953 33.8279 25.6848C34.8593 26.2727 35.2566 26.6652 35.1771 27.2531C35.1771 28.135 34.3826 28.5275 33.5895 28.5275C32.6362 28.5275 31.6828 28.2335 30.8103 27.7425L30.3336 30.4883C31.2869 30.9776 32.3184 31.1747 33.2717 31.1747C36.2099 31.2716 38.0358 29.5079 38.0358 26.8606C38.0358 23.527 34.3032 23.3316 34.3032 21.8618V21.8618ZM47.4829 31.0781L45.3392 18.333H43.0366C42.5599 18.333 42.0832 18.7255 41.9243 19.3134L37.9547 31.0781H40.734L41.2887 29.2158H44.7036L45.0214 31.0781H47.4829ZM43.4342 21.7638L44.2272 26.5672H42.0041L43.4342 21.7638Z" fill="#172B85"/>
</svg>
