<svg width="73" height="59" viewBox="0 0 73 59" fill="none" xmlns="http://www.w3.org/2000/svg">
<g clip-path="url(#clip0_1370_367)">
<path d="M0 7.375C0 3.3019 2.7236 0 6.08333 0H66.9167C70.2764 0 73 3.3019 73 7.375V51.625C73 55.6981 70.2764 59 66.9167 59H6.08333C2.7236 59 0 55.6981 0 51.625V7.375Z" fill="#1434CB"/>
<path d="M62.8255 18.5022H59.0012C57.845 18.5022 56.9557 18.9335 56.422 20.3352L49.1292 40.4978H54.2875C54.2875 40.4978 55.1769 37.8023 55.3548 37.1553C55.8884 37.1553 60.9579 37.1553 61.6694 37.1553C61.8472 37.9101 62.2919 40.39 62.2919 40.39H66.9167L62.8255 18.5022ZM56.7778 32.6268C57.2225 31.333 58.7344 26.481 58.7344 26.481C58.7344 26.5888 59.1791 25.1871 59.357 24.4324L59.7127 26.3732C59.7127 26.3732 60.691 31.6564 60.8689 32.7347H56.7778V32.6268Z" fill="white"/>
<path d="M49.4848 33.2737C49.4848 37.8022 46.1052 40.8213 40.8579 40.8213C38.6344 40.8213 36.4999 40.2821 35.3438 39.6352L36.0553 34.6754L36.6778 34.9989C38.2787 35.8615 39.3459 36.1849 41.3026 36.1849C42.7256 36.1849 44.2375 35.538 44.2375 34.0285C44.2375 33.0581 43.6149 32.4112 41.6583 31.3329C39.7906 30.2547 37.3004 28.5296 37.3004 25.4028C37.3004 21.0899 40.7689 18.1787 45.6605 18.1787C47.5282 18.1787 49.1291 18.61 50.1074 19.1491L49.3959 23.8933L49.0401 23.462C48.1508 23.0307 46.9946 22.5994 45.3048 22.5994C43.4371 22.7072 42.5477 23.6776 42.5477 24.5402C42.5477 25.5106 43.6149 26.2653 45.3048 27.2357C48.1508 28.8531 49.4848 30.686 49.4848 33.2737Z" fill="white"/>
<path d="M6.08325 18.7179L6.17219 18.2866H13.8208C14.8881 18.2866 15.6885 18.7179 15.9553 20.1196L17.6451 29.8235C15.9553 24.6481 12.0421 20.4431 6.08325 18.7179Z" fill="#F9B50B"/>
<path d="M28.4066 18.5021L20.6691 40.3899H15.4217L10.9749 22.0602C14.1766 24.5401 16.8447 28.4217 17.8231 31.1172L18.3567 33.3815L23.1593 18.3943H28.4066V18.5021Z" fill="white"/>
<path d="M30.4522 18.3943H35.3437L32.2309 40.3899H27.3394L30.4522 18.3943Z" fill="white"/>
</g>
<defs>
<clipPath id="clip0_1370_367">
<rect width="73" height="59" fill="white"/>
</clipPath>
</defs>
</svg>
